<?xml version="1.0" encoding="utf-8"?>
<!-- Generator: Adobe Illustrator 16.0.0, SVG Export Plug-In . SVG Version: 6.00 Build 0)  -->
<!DOCTYPE svg PUBLIC "-//W3C//DTD SVG 1.1//EN" "http://www.w3.org/Graphics/SVG/1.1/DTD/svg11.dtd">
<svg version="1.1" id="Layer_1" xmlns="http://www.w3.org/2000/svg" xmlns:xlink="http://www.w3.org/1999/xlink" x="0px" y="0px"
	 width="1500px" height="768px" viewBox="0 0 1500 768" enable-background="new 0 0 1500 768" xml:space="preserve">
<rect id="Tile1" y="157" fill="#00BCD4" width="459" height="87"/>
<rect id="Tile2" x="459" y="77" fill="#CDDC39" width="578" height="80"/>
<rect id="Tile3" x="1037" y="2" fill="#FF9800" width="463" height="77"/>
<rect x="2117" y="-491" fill="#F44336" width="903" height="413"/>
<rect x="1520" y="-730" fill="#E91E63" width="425" height="297"/>
<rect x="1945" y="-730" fill="#CDDC39" width="172" height="652"/>
<rect x="-1520" y="-788" fill="#8BC34A" width="765" height="710"/>
<rect x="-755" y="-730" fill="#009688" width="735" height="710"/>
<text transform="matrix(1 0 0 1 -1319.0024 -539.2749)" fill="#FFFFFF" font-family="'Roboto-BoldCondensed'" font-size="64.6162">You’ve reached Sarthak Veggalam. </text>
<text transform="matrix(1 0 0 1 -1309.9985 -358.2749)" fill="#FFFFFF" font-family="'Roboto-BoldCondensed'" font-size="64.6162">Product Enthusiast. Climate Change Advocate.</text>
<path fill="#BF360C" d="M-884-503c0,0,93-40,0,66C-967-528-895-512-884-503z"/>
<text transform="matrix(1 0 0 1 -1309.9985 -448.8291)" fill="#EF6C00" font-family="'Roboto-BoldCondensed'" font-size="64.4311">User Research</text>
<rect y="-788" fill="#FF5722" width="765" height="710"/>
<rect x="765" y="-730" fill="#FFC107" width="735" height="710"/>
<text transform="matrix(1 0 0 1 200.9976 -539.2749)"><tspan x="0" y="0" fill="#FFFFFF" font-family="'Roboto-BoldCondensed'" font-size="64.6162">You’ve reached Sartha</tspan><tspan x="572.143" y="0" fill="#33691E" font-family="'Roboto-BoldCondensed'" font-size="64.6162">k Veggalam. </tspan></text>
<text transform="matrix(1 0 0 1 210.0015 -358.2749)"><tspan x="0" y="0" fill="#FFFFFF" font-family="'Roboto-BoldCondensed'" font-size="64.6162">Product Enthusiast. C</tspan><tspan x="551.604" y="0" fill="#1B5E20" font-family="'Roboto-BoldCondensed'" font-size="64.6162">limate Change Advocate.</tspan></text>
<path fill="#BF360C" d="M636-503c0,0,93-40,0,66C553-528,625-512,636-503z"/>
<text transform="matrix(1 0 0 1 210.0015 -448.8291)" fill="#424242" font-family="'Roboto-BoldCondensed'" font-size="64.4311">User Research</text>
<rect x="1520" y="-433" fill="#FF5722" width="425" height="355"/>
<rect x="2117" y="-730" fill="#FFC107" width="903" height="239"/>
<text transform="matrix(1 0 0 1 1720.998 -539.2749)"><tspan x="0" y="0" fill="#FFFFFF" font-family="'Roboto-BoldCondensed'" font-size="64.6162">You’ve reached </tspan><tspan x="404.893" y="0" fill="#33691E" font-family="'Roboto-BoldCondensed'" font-size="64.6162">Sarthak Veggalam. </tspan></text>
<text transform="matrix(1 0 0 1 1730.002 -358.2749)" fill="#1B5E20" font-family="'Roboto-BoldCondensed'" font-size="64.6162">Product Enthusiast. Climate Change Advocate.</text>
<path fill="#BF360C" d="M2156-503c0,0,93-40,0,66C2073-528,2145-512,2156-503z"/>
<text transform="matrix(1 0 0 1 1730.002 -448.8291)" fill="#424242" font-family="'Roboto-BoldCondensed'" font-size="64.4311">User Research</text>
<text transform="matrix(0.9769 0 0 1 -799.002 703.2461)" fill="#FF5722" font-family="'Roboto-BoldCondensed'" font-size="546.21">V</text>
<text transform="matrix(1 0 0 1 -1017.002 303.7539)"><tspan x="0" y="0" fill="#FF5722" font-family="'Roboto-BoldCondensed'" font-size="168.5594">S</tspan><tspan x="91.111" y="0" fill="#FF9800" font-family="'Roboto-BoldCondensed'" font-size="168.5594">arthak</tspan></text>
<text transform="matrix(1 0 0 1 -585.002 683.791)" fill="#FF9800" font-family="'Roboto-BoldCondensed'" font-size="148.3899">eggalam</text>
<text transform="matrix(1 0 0 1 300.9932 890.376)" fill="#FF5722" font-family="'Roboto-BoldCondensed'" font-size="78.8105">You’ve Reached Sarthak Veggalam.</text>
<rect x="651" y="1118" fill="#FB8C00" width="150" height="49"/>
<text transform="matrix(1 0 0 1 684.7764 1151.1074)" fill="#FFFFFF" font-family="'Roboto-BoldCondensed'" font-size="22.23">Know Me</text>
<rect x="825" y="1118" fill="#8BC34A" width="151" height="49"/>
<text transform="matrix(1 0 0 1 859.1699 1151.1074)" fill="#FFFFFF" font-family="'Roboto-BoldCondensed'" font-size="22.23">My Work</text>
<text transform="matrix(1 0 0 1 522 956.6416)"><tspan x="0" y="0" fill="#2196F3" font-family="'Roboto-BoldCondensed'" font-size="23.0977">Experience Designer.</tspan><tspan x="190.488" y="0" fill="#3F51B5" font-family="'Roboto-BoldCondensed'" font-size="23.0977">Product Enthusiast.</tspan><tspan x="369.776" y="0" fill="#4CAF50" font-family="'Roboto-BoldCondensed'" font-size="23.0977">Climate Change Advocate.</tspan></text>
</svg>
